<svg width="100" height="100" viewBox="0 0 100 100" xmlns="http://www.w3.org/2000/svg">
  <defs><radialGradient id="alienbg" cx="50%" cy="40%"><stop offset="0%" stop-color="#001a08"/><stop offset="100%" stop-color="#000a04"/></radialGradient></defs>
  <circle cx="50" cy="50" r="48" fill="url(#alienbg)"/>
  <ellipse cx="50" cy="46" rx="28" ry="34" fill="#3adc60"/>
  <ellipse cx="50" cy="46" rx="28" ry="34" fill="none" stroke="#00ff44" stroke-width="1.5" opacity="0.5"/>
  <ellipse cx="38" cy="42" rx="10" ry="13" fill="#001800"/>
  <ellipse cx="62" cy="42" rx="10" ry="13" fill="#001800"/>
  <ellipse cx="38" cy="40" rx="7" ry="9" fill="#00ff88" opacity="0.4"/>
  <ellipse cx="62" cy="40" rx="7" ry="9" fill="#00ff88" opacity="0.4"/>
  <circle cx="38" cy="42" r="5" fill="#000"/>
  <circle cx="62" cy="42" r="5" fill="#000"/>
  <circle cx="36" cy="40" r="2" fill="#00ffaa"/>
  <circle cx="60" cy="40" r="2" fill="#00ffaa"/>
  <path d="M43 62 Q50 70 57 62" fill="none" stroke="#00cc44" stroke-width="2.5"/>
  <ellipse cx="50" cy="22" rx="5" ry="3" fill="#00ff44" opacity="0.5"/>
  <line x1="24" y1="50" x2="14" y2="58" stroke="#3adc60" stroke-width="2"/>
  <line x1="76" y1="50" x2="86" y2="58" stroke="#3adc60" stroke-width="2"/>
  <ellipse cx="50" cy="58" rx="8" ry="4" fill="#2aff60" opacity="0.4"/>
</svg>
