<svg width="100" height="100" viewBox="0 0 100 100" xmlns="http://www.w3.org/2000/svg">
  <defs><radialGradient id="mgrbg" cx="50%" cy="40%"><stop offset="0%" stop-color="#0a1a3e"/><stop offset="100%" stop-color="#050a1e"/></radialGradient></defs>
  <circle cx="50" cy="50" r="48" fill="url(#mgrbg)"/>
  <circle cx="50" cy="42" r="20" fill="#f0d8b0"/>
  <rect x="26" y="64" width="48" height="24" rx="5" fill="#1a3a6e"/>
  <rect x="44" y="60" width="12" height="6" fill="#f0d8b0"/>
  <rect x="47" y="55" width="6" height="20" fill="#e00030"/>
  <polygon points="47,55 53,55 56,70 50,75 44,70" fill="#b80028"/>
  <circle cx="40" cy="38" r="5" fill="#1a0800"/>
  <circle cx="60" cy="38" r="5" fill="#1a0800"/>
  <circle cx="41" cy="36" r="2" fill="#fff"/>
  <circle cx="61" cy="36" r="2" fill="#fff"/>
  <path d="M42 52 Q50 58 58 52" fill="none" stroke="#c4956a" stroke-width="2"/>
  <rect x="26" y="66" width="20" height="18" fill="#1a3a6e"/>
  <rect x="54" y="66" width="20" height="18" fill="#1a3a6e"/>
  <rect x="20" y="58" width="10" height="12" rx="5" fill="#1a3a6e"/>
  <rect x="70" y="58" width="10" height="12" rx="5" fill="#1a3a6e"/>
</svg>
