<svg width="100" height="100" viewBox="0 0 100 100" xmlns="http://www.w3.org/2000/svg">
  <defs><radialGradient id="sambg" cx="50%" cy="40%"><stop offset="0%" stop-color="#1a0a00"/><stop offset="100%" stop-color="#0a0500"/></radialGradient></defs>
  <circle cx="50" cy="50" r="48" fill="url(#sambg)"/>
  <circle cx="50" cy="54" r="22" fill="#e8c898"/>
  <ellipse cx="50" cy="34" rx="26" ry="18" fill="#1a0a00"/>
  <ellipse cx="50" cy="30" rx="22" ry="14" fill="#cc2200"/>
  <rect x="24" y="36" width="52" height="10" fill="#1a0a00"/>
  <rect x="18" y="38" width="10" height="18" rx="4" fill="#1a0a00"/>
  <rect x="72" y="38" width="10" height="18" rx="4" fill="#1a0a00"/>
  <rect x="32" y="38" width="36" height="8" fill="#cc2200" opacity="0.6"/>
  <line x1="50" y1="30" x2="50" y2="18" stroke="#ffd700" stroke-width="3"/>
  <circle cx="50" cy="16" r="5" fill="#ffd700"/>
  <circle cx="41" cy="50" r="5" fill="#1a0800"/>
  <circle cx="59" cy="50" r="5" fill="#1a0800"/>
  <circle cx="42" cy="48" r="2" fill="#fff"/>
  <circle cx="60" cy="48" r="2" fill="#fff"/>
  <path d="M42 62 Q50 68 58 62" fill="none" stroke="#c4956a" stroke-width="2"/>
  <rect x="30" y="74" width="40" height="16" rx="3" fill="#cc2200"/>
</svg>
