<svg width="100" height="100" viewBox="0 0 100 100" xmlns="http://www.w3.org/2000/svg">
  <defs><radialGradient id="spybg" cx="50%" cy="40%"><stop offset="0%" stop-color="#1a1a3e"/><stop offset="100%" stop-color="#0a0a1e"/></radialGradient></defs>
  <circle cx="50" cy="50" r="48" fill="url(#spybg)"/>
  <circle cx="50" cy="44" r="20" fill="#e8c898"/>
  <rect x="26" y="26" width="48" height="12" rx="6" fill="#111"/>
  <ellipse cx="50" cy="27" rx="20" ry="10" fill="#222"/>
  <rect x="24" y="35" width="52" height="5" rx="2" fill="#0a0a0a"/>
  <rect x="30" y="50" width="16" height="6" rx="3" fill="#000" opacity="0.85"/>
  <rect x="54" y="50" width="16" height="6" rx="3" fill="#000" opacity="0.85"/>
  <rect x="44" y="52" width="12" height="3" fill="#333"/>
  <circle cx="38" cy="52" r="2.5" fill="#00d4ff" opacity="0.5"/>
  <circle cx="62" cy="52" r="2.5" fill="#00d4ff" opacity="0.5"/>
  <path d="M44 60 Q50 65 56 60" fill="none" stroke="#a08060" stroke-width="2"/>
  <rect x="26" y="66" width="48" height="22" rx="5" fill="#111"/>
  <rect x="44" y="62" width="12" height="6" fill="#e8c898"/>
  <rect x="46" y="60" width="8" height="12" fill="#cc0020"/>
  <ellipse cx="50" cy="72" rx="8" ry="4" fill="#1a1a2e"/>
</svg>
