<svg width="100" height="100" viewBox="0 0 100 100" xmlns="http://www.w3.org/2000/svg">
  <defs><radialGradient id="detbg" cx="50%" cy="40%"><stop offset="0%" stop-color="#2a1a0a"/><stop offset="100%" stop-color="#0a0800"/></radialGradient></defs>
  <circle cx="50" cy="50" r="48" fill="url(#detbg)"/>
  <circle cx="46" cy="46" r="20" fill="#e8c898"/>
  <ellipse cx="32" cy="30" rx="8" ry="14" fill="#5a3a18" transform="rotate(-15,32,30)"/>
  <ellipse cx="60" cy="30" rx="8" ry="14" fill="#5a3a18" transform="rotate(15,60,30)"/>
  <ellipse cx="46" cy="28" rx="18" ry="10" fill="#7a5228"/>
  <rect x="28" y="33" width="36" height="8" rx="2" fill="#5a3a18"/>
  <circle cx="40" cy="44" r="5" fill="#1a0800"/>
  <circle cx="52" cy="44" r="5" fill="#1a0800"/>
  <circle cx="41" cy="42" r="2" fill="#fff"/>
  <circle cx="53" cy="42" r="2" fill="#fff"/>
  <path d="M40 56 Q46 62 52 56" fill="none" stroke="#a07850" stroke-width="2.5"/>
  <ellipse cx="46" cy="57" rx="7" ry="4" fill="#c89a70"/>
  <rect x="66" y="52" width="18" height="18" rx="9" fill="none" stroke="#ffd700" stroke-width="2.5"/>
  <line x1="74" y1="52" x2="80" y2="46" stroke="#ffd700" stroke-width="3" stroke-linecap="round"/>
  <rect x="22" y="68" width="44" height="20" rx="5" fill="#5a3a18"/>
</svg>
