<svg width="100" height="100" viewBox="0 0 100 100" xmlns="http://www.w3.org/2000/svg">
  <defs><radialGradient id="spyfbg" cx="50%" cy="40%"><stop offset="0%" stop-color="#1a0a2e"/><stop offset="100%" stop-color="#0a0514"/></radialGradient></defs>
  <circle cx="50" cy="50" r="48" fill="url(#spyfbg)"/>
  <circle cx="50" cy="48" r="22" fill="#f0c8a8"/>
  <path d="M28 36 Q32 18 50 20 Q68 18 72 36 Q68 28 50 30 Q32 28 28 36z" fill="#1a0a2e"/>
  <path d="M28 36 Q24 42 26 48 Q28 52 22 54 Q16 52 18 44 Q20 38 28 36z" fill="#1a0a2e"/>
  <path d="M72 36 Q76 42 74 48 Q72 52 78 54 Q84 52 82 44 Q80 38 72 36z" fill="#1a0a2e"/>
  <rect x="30" y="47" width="16" height="9" rx="4.5" fill="#111" opacity="0.92"/>
  <rect x="54" y="47" width="16" height="9" rx="4.5" fill="#111" opacity="0.92"/>
  <rect x="44" y="50" width="12" height="3" fill="#333"/>
  <circle cx="38" cy="51" r="3" fill="#ff0060" opacity="0.35"/>
  <circle cx="62" cy="51" r="3" fill="#ff0060" opacity="0.35"/>
  <path d="M42 62 Q50 68 58 62" fill="none" stroke="#c4856a" stroke-width="2"/>
  <rect x="28" y="74" width="44" height="18" rx="5" fill="#2a1a3e"/>
  <rect x="44" y="68" width="12" height="8" fill="#f0c8a8"/>
  <rect x="46" y="66" width="8" height="6" fill="#aa0060"/>
</svg>
